<svg height="100" node-id="1" sillyvg="true" template-height="100" template-width="100" version="1.1" viewBox="0 0 100 100" width="100" xmlns="http://www.w3.org/2000/svg" xmlns:xlink="http://www.w3.org/1999/xlink"><defs node-id="2082"><linearGradient gradientUnits="userSpaceOnUse" id="SVGID_390_" node-id="2009" spreadMethod="pad" x1="76.0298" x2="76.0298" y1="44.4586" y2="63.6066"><stop offset="0.0936" stop-color="#f6ece9"/><stop offset="0.3745" stop-color="#f3e7e2"/><stop offset="0.7943" stop-color="#ecdbcd"/><stop offset="0.9791" stop-color="#e8d4c2"/></linearGradient><linearGradient gradientUnits="userSpaceOnUse" id="SVGID_391_" node-id="2015" spreadMethod="pad" x1="48.2956" x2="47.6573" y1="80.3484" y2="41.3073"><stop offset="0.1016" stop-color="#e9d6c5"/><stop offset="0.452" stop-color="#efe2d7"/><stop offset="0.8381" stop-color="#f4ece7"/></linearGradient><linearGradient gradientUnits="userSpaceOnUse" id="SVGID_392_" node-id="2020" spreadMethod="pad" x1="60.2758" x2="59.865" y1="81.9433" y2="72.0559"><stop offset="0.1016" stop-color="#e87f39"/><stop offset="0.367" stop-color="#ef9b61"/><stop offset="0.6779" stop-color="#f6b98a"/><stop offset="0.8381" stop-color="#f9c49a"/></linearGradient><linearGradient gradientUnits="userSpaceOnUse" id="SVGID_393_" node-id="2026" spreadMethod="pad" x1="34.7978" x2="47.1389" y1="83.46" y2="70.3597"><stop offset="0.1304" stop-color="#9f5e16"/><stop offset="0.3608" stop-color="#9b5c15"/><stop offset="0.5679" stop-color="#915413"/><stop offset="0.6709" stop-color="#884e12"/></linearGradient><linearGradient gradientUnits="userSpaceOnUse" id="SVGID_396_" node-id="2037" spreadMethod="pad" x1="32.8262" x2="49.874" y1="77.2914" y2="77.2914"><stop offset="0" stop-color="#ca782f"/><stop offset="0.3634" stop-color="#c6762e"/><stop offset="0.7127" stop-color="#bb702b"/><stop offset="1" stop-color="#ab6827"/></linearGradient><linearGradient gradientUnits="userSpaceOnUse" id="SVGID_397_" node-id="2043" spreadMethod="pad" x1="13.6838" x2="38.1645" y1="57.4741" y2="95.3054"><stop offset="0.1304" stop-color="#9f5d16"/><stop offset="0.3608" stop-color="#9b5b15"/><stop offset="0.5679" stop-color="#915413"/><stop offset="0.6709" stop-color="#884e12"/></linearGradient><linearGradient gradientUnits="userSpaceOnUse" id="SVGID_400_" node-id="2054" spreadMethod="pad" x1="20.1594" x2="29.8903" y1="74.5655" y2="74.5655"><stop offset="0" stop-color="#d57312"/><stop offset="0.4852" stop-color="#d17110"/><stop offset="0.9398" stop-color="#c66c0c"/></linearGradient><linearGradient gradientUnits="userSpaceOnUse" id="SVGID_401_" node-id="2060" spreadMethod="pad" x1="35.5333" x2="35.5333" y1="12.1549" y2="36.3181"><stop offset="0.0936" stop-color="#facea7"/><stop offset="0.2363" stop-color="#f9c9a0"/><stop offset="0.4502" stop-color="#f5ba8b"/><stop offset="0.7087" stop-color="#f0a16a"/><stop offset="0.9791" stop-color="#e9823f"/></linearGradient><linearGradient gradientUnits="userSpaceOnUse" id="SVGID_402_" node-id="2067" spreadMethod="pad" x1="46.622" x2="46.622" y1="12.1549" y2="36.3181"><stop offset="0.0936" stop-color="#facea7"/><stop offset="0.2363" stop-color="#f9c9a0"/><stop offset="0.4502" stop-color="#f5ba8b"/><stop offset="0.7087" stop-color="#f0a16a"/><stop offset="0.9791" stop-color="#e9823f"/></linearGradient><linearGradient gradientUnits="userSpaceOnUse" id="SVGID_403_" node-id="2074" spreadMethod="pad" x1="57.7106" x2="57.7106" y1="12.1549" y2="36.3181"><stop offset="0.0936" stop-color="#facea7"/><stop offset="0.2363" stop-color="#f9c9a0"/><stop offset="0.4502" stop-color="#f5ba8b"/><stop offset="0.7087" stop-color="#f0a16a"/><stop offset="0.9791" stop-color="#e9823f"/></linearGradient><clipPath id="SVGID_395_" node-id="2035"><path d="M 49.97 76.91 C 49.97 80.99 45.94 84.30 40.97 84.30 C 36.00 84.30 31.97 80.99 31.97 76.91 C 31.97 72.83 36.00 69.52 40.97 69.52 C 45.94 69.52 49.97 72.83 49.97 76.91 Z" fill="#000000" fill-rule="nonzero" node-id="2187" stroke="none" target-height="14.780006" target-width="18.000002" target-x="31.97" target-y="69.52"/></clipPath><clipPath id="SVGID_399_" node-id="2052"><path d="M 32.95 80.88 C 31.84 83.12 29.99 84.80 27.63 85.41 C 22.76 86.66 17.56 82.89 16.03 76.99 C 14.50 71.09 17.20 65.28 22.07 64.03 C 26.94 62.78 32.14 66.55 33.67 72.45 C 33.80 72.96 33.91 73.48 33.98 73.99" fill="#000000" fill-rule="nonzero" node-id="2191" stroke="none" target-height="23.880005" target-width="19.48" target-x="14.5" target-y="62.78"/></clipPath></defs><path d="M 72.23 45.96 L 82.59 45.96 L 82.59 53.06 C 82.59 58.06 78.52 62.11 73.49 62.11 L 73.49 62.11 C 72.04 62.11 70.68 61.77 69.46 61.18" fill="none" node-id="2197" stroke="url(#SVGID_390_)" stroke-linecap="round" stroke-width="3" target-height="16.150002" target-width="13.129997" target-x="69.46" target-y="45.96"/><path d="M 23.24 41.71 L 23.24 49.93 C 23.24 55.74 25.29 61.08 28.70 65.27 L 26.88 74.72 L 51.72 80.29 L 57.27 72.38 C 66.06 68.68 72.23 60.02 72.23 49.93 L 72.23 41.71 L 23.24 41.71 Z" fill="url(#SVGID_391_)" fill-rule="nonzero" node-id="2199" stroke="none" target-height="38.58" target-width="48.990005" target-x="23.24" target-y="41.71"/><path d="M 48.67 72.52 L 73.50 72.52 L 73.50 75.44 C 73.50 78.87 70.70 81.65 67.26 81.65 L 46.66 81.65" fill="url(#SVGID_392_)" fill-rule="nonzero" node-id="2201" stroke="none" target-height="9.130005" target-width="26.84" target-x="46.66" target-y="72.52"/><path d="M 46.21 82.12 C 42.69 85.63 37.48 86.14 34.59 83.26 C 31.70 80.38 32.21 75.21 35.73 71.70 C 39.25 68.19 44.46 67.68 47.35 70.56 C 50.24 73.44 49.73 78.62 46.21 82.12 Z" fill="url(#SVGID_393_)" fill-rule="nonzero" node-id="2203" stroke="none" target-height="18.46" target-width="18.54" target-x="31.7" target-y="67.68"/><g node-id="2231"><g clip-path="url(#SVGID_395_)" group-id="1" node-id="2207"><path d="M 48.37 72.15 C 48.37 72.15 41.51 71.65 40.79 75.02 C 40.07 78.38 40.84 80.00 39.28 81.20 C 37.71 82.40 34.33 82.46 34.33 82.46" fill="none" group-id="1,4" node-id="2209" stroke="url(#SVGID_396_)" stroke-linecap="round" stroke-width="3" target-height="10.809998" target-width="14.039997" target-x="34.33" target-y="71.65"/></g></g><path d="M 32.95 80.88 C 31.84 83.12 29.99 84.80 27.63 85.41 C 22.76 86.66 17.56 82.89 16.03 76.99 C 14.50 71.09 17.20 65.28 22.07 64.03 C 26.94 62.78 32.14 66.55 33.67 72.45 C 33.80 72.96 33.91 73.48 33.98 73.99" fill="url(#SVGID_397_)" fill-rule="nonzero" node-id="2213" stroke="none" target-height="23.880005" target-width="19.48" target-x="14.5" target-y="62.78"/><g clip-path="url(#SVGID_399_)" group-id="2" node-id="2217"><path d="M 24.40 63.94 C 24.40 63.94 19.59 70.86 22.72 73.72 C 25.85 76.58 28.06 76.77 28.36 79.17 C 28.67 81.57 26.61 85.18 26.61 85.18" fill="none" group-id="2,5" node-id="2219" stroke="url(#SVGID_400_)" stroke-linecap="round" stroke-width="3" target-height="21.240002" target-width="9.08" target-x="19.59" target-y="63.94"/></g><path d="M 37.66 13.65 C 37.66 13.65 31.33 19.24 33.69 22.76 C 36.05 26.28 38.14 26.99 37.87 29.39 C 37.59 31.80 34.73 34.82 34.73 34.82" fill="none" group-id="3" node-id="2225" stroke="url(#SVGID_401_)" stroke-linecap="round" stroke-width="3" target-height="21.17" target-width="6.8099995" target-x="31.33" target-y="13.65"/><path d="M 48.75 13.65 C 48.75 13.65 42.42 19.24 44.78 22.76 C 47.14 26.28 49.23 26.99 48.96 29.39 C 48.68 31.80 45.82 34.82 45.82 34.82" fill="none" group-id="3" node-id="2227" stroke="url(#SVGID_402_)" stroke-linecap="round" stroke-width="3" target-height="21.17" target-width="6.8100014" target-x="42.42" target-y="13.65"/><path d="M 59.84 13.65 C 59.84 13.65 53.51 19.24 55.87 22.76 C 58.23 26.28 60.32 26.99 60.05 29.39 C 59.77 31.80 56.91 34.82 56.91 34.82" fill="none" group-id="3" node-id="2229" stroke="url(#SVGID_403_)" stroke-linecap="round" stroke-width="3" target-height="21.17" target-width="6.8100014" target-x="53.51" target-y="13.65"/></svg>